{"title":"[Bangbros] Nicole Aniston gets a Creampie (mp4 480p)","uid":11790324,"size":369514246,"categoryP":"porn","categoryS":"movie_clips","magnet":"?xt=urn:btih:9aa46465ac484b1a7a22e534aa34d0f231e9c788&amp;dn=%5BBangbros%5D+Nicole+Aniston+gets+a+Creampie+%28mp4+480p%29&amp;tr=udp%3A%2F%2Ftracker.openbittorrent.com%3A80&amp;tr=udp%3A%2F%2Fopen.demonii.com%3A1337&amp;tr=udp%3A%2F%2Ftracker.coppersurfer.tk%3A6969&amp;tr=udp%3A%2F%2Fexodus.desync.com%3A6969","seeders":5,"leechers":1,"uploader":"supertongo","files":1,"time":1427910272,"description":"Perfect Pussy gets a creampie\n\n:::Media info:::\n\nGeneral\n\nFormat                         : MPEG-4\nFormat profile                 : Base Media\nCodec ID                       : isom\nFile size                      : 352 MiB\nDuration                       : 46mn 0s\nOverall bit rate mode          : Variable\nOverall bit rate               : 1 071 Kbps\n\nVideo\nID                             : 1\nFormat                         : AVC\nFormat/Info                    : Advanced Video Codec\nFormat profile                 : &lt;a class=&quot;__cf_email__&quot; href=&quot;/cdn-cgi/l/email-protection&quot; data-cfemail=&quot;b3fed2daddf3ff809d83&quot;&gt;[email&amp;#160;protected]&lt;/a&gt;&lt;script cf-hash='f9e31' type=&quot;text/javascript&quot;&gt;\n/* &lt;![CDATA[ */!function(){try{var t=&quot;currentScript&quot;in document?document.currentScript:function(){for(var t=document.getElementsByTagName(&quot;script&quot;),e=t.length;e--;)if(t[e].getAttribute(&quot;cf-hash&quot;))return t[e]}();if(t&amp;&amp;t.previousSibling){var e,r,n,i,c=t.previousSibling,a=c.getAttribute(&quot;data-cfemail&quot;);if(a){for(e=&quot;&quot;,r=parseInt(a.substr(0,2),16),n=2;a.length-n;n+=2)i=parseInt(a.substr(n,2),16)^r,e+=String.fromCharCode(i);e=document.createTextNode(e),c.parentNode.replaceChild(e,c)}}}catch(u){}}();/* ]]&gt; */&lt;/script&gt;\nFormat settings, CABAC         : Yes\nFormat settings, ReFrames      : 6 frames\nCodec ID                       : avc1\nCodec ID/Info                  : Advanced Video Coding\nDuration                       : 46mn 0s\nBit rate                       : 1 000 Kbps\nWidth                          : 720 pixels\nHeight                         : 404 pixels\nDisplay aspect ratio           : 16:9\nFrame rate mode                : Constant\nFrame rate                     : 29.970 fps\nColor space                    : YUV\nChroma subsampling             : 4:2:0\nBit depth                      : 8 bits\nScan type                      : Progressive\nBits/(Pixel*Frame)             : 0.115\nStream size                    : 326 MiB (93%)\n\nID                             : 2\nFormat                         : AAC\nFormat/Info                    : Advanced Audio Codec\nFormat profile                 : LC\nCodec ID                       : 40\nDuration                       : 46mn 0s\nBit rate mode                  : Variable\nBit rate                       : 72.0 Kbps\nMaximum bit rate               : 96.0 Kbps\nChannel(s)                     : 2 channels\nChannel positions              : Front: L R\nSampling rate                  : 44.1 KHz\nCompression mode               : Lossy\nStream size                    : 23.4 MiB (7%)\nLanguage                       : English","torrent":{"xt":"urn:btih:9aa46465ac484b1a7a22e534aa34d0f231e9c788","amp;dn":"%5BBangbros%5D+Nicole+Aniston+gets+a+Creampie+%28mp4+480p%29","amp;tr":["udp%3A%2F%2Ftracker.openbittorrent.com%3A80","udp%3A%2F%2Fopen.demonii.com%3A1337","udp%3A%2F%2Ftracker.coppersurfer.tk%3A6969","udp%3A%2F%2Fexodus.desync.com%3A6969"],"infoHash":"9aa46465ac484b1a7a22e534aa34d0f231e9c788","infoHashBuffer":{"type":"Buffer","data":[154,164,100,101,172,72,75,26,122,34,229,52,170,52,208,242,49,233,199,136]},"announce":[],"urlList":[]}}